<svg width="394" height="307" viewBox="0 0 394 307" fill="none" xmlns="http://www.w3.org/2000/svg">
<path d="M0 35C0 15.67 15.67 0 35 0H359C378.33 0 394 15.67 394 35V272C394 291.33 378.33 307 359 307H0V35Z" fill="url(#paint0_linear_460_3)"/>
<path d="M44.11 139.216C43.174 139.216 42.334 139.066 41.59 138.766C40.846 138.454 40.204 138.016 39.664 137.452C39.136 136.876 38.728 136.186 38.44 135.382C38.152 134.578 38.008 133.684 38.008 132.7C38.008 131.764 38.152 130.918 38.44 130.162C38.74 129.406 39.166 128.758 39.718 128.218C40.27 127.678 40.93 127.258 41.698 126.958C42.466 126.646 43.33 126.484 44.29 126.472C44.662 126.472 45.04 126.508 45.424 126.58C45.82 126.652 46.198 126.754 46.558 126.886C46.918 127.018 47.242 127.174 47.53 127.354C47.734 127.486 47.908 127.624 48.052 127.768C48.196 127.9 48.274 128.038 48.286 128.182C48.298 128.254 48.286 128.344 48.25 128.452C48.214 128.56 48.166 128.662 48.106 128.758C48.01 128.902 47.902 129.01 47.782 129.082C47.674 129.142 47.566 129.172 47.458 129.172C47.41 129.172 47.326 129.142 47.206 129.082C47.086 129.022 46.936 128.932 46.756 128.812C46.552 128.692 46.312 128.578 46.036 128.47C45.772 128.362 45.484 128.278 45.172 128.218C44.86 128.158 44.536 128.128 44.2 128.128C43.276 128.128 42.472 128.314 41.788 128.686C41.104 129.058 40.576 129.592 40.204 130.288C39.844 130.984 39.658 131.806 39.646 132.754C39.658 133.738 39.85 134.59 40.222 135.31C40.594 136.03 41.116 136.588 41.788 136.984C42.472 137.38 43.27 137.578 44.182 137.578C44.482 137.578 44.788 137.554 45.1 137.506C45.412 137.458 45.718 137.392 46.018 137.308C46.33 137.212 46.618 137.098 46.882 136.966V133.492H43.732C43.576 133.492 43.438 133.474 43.318 133.438C43.21 133.402 43.126 133.33 43.066 133.222C43.018 133.114 42.994 132.952 42.994 132.736C42.994 132.52 43.024 132.358 43.084 132.25C43.144 132.142 43.228 132.07 43.336 132.034C43.444 131.998 43.576 131.98 43.732 131.98H47.638C47.878 131.98 48.058 132.022 48.178 132.106C48.298 132.19 48.382 132.298 48.43 132.43C48.49 132.55 48.52 132.7 48.52 132.88V137.308C48.52 137.5 48.412 137.704 48.196 137.92C47.992 138.124 47.698 138.316 47.314 138.496C47.038 138.64 46.726 138.766 46.378 138.874C46.042 138.982 45.682 139.066 45.298 139.126C44.914 139.186 44.518 139.216 44.11 139.216ZM51.9041 139.18C51.6761 139.18 51.5021 139.144 51.3821 139.072C51.2621 139.012 51.1841 138.922 51.1481 138.802C51.1241 138.67 51.1121 138.52 51.1121 138.352V127.408C51.1121 127.252 51.1301 127.12 51.1661 127.012C51.2141 126.892 51.2921 126.796 51.4001 126.724C51.5201 126.652 51.6941 126.616 51.9221 126.616H55.9001C56.4881 126.616 57.0221 126.706 57.5021 126.886C57.9941 127.054 58.4201 127.306 58.7801 127.642C59.1401 127.978 59.4161 128.404 59.6081 128.92C59.8121 129.424 59.9141 130.012 59.9141 130.684C59.9141 131.104 59.8481 131.542 59.7161 131.998C59.5841 132.442 59.3801 132.862 59.1041 133.258C58.8401 133.654 58.4981 133.984 58.0781 134.248C57.6581 134.512 57.1481 134.662 56.5481 134.698H52.7321V138.37C52.7321 138.538 52.7081 138.682 52.6601 138.802C52.6241 138.922 52.5461 139.012 52.4261 139.072C52.3181 139.144 52.1441 139.18 51.9041 139.18ZM59.6261 138.982C59.3741 139.15 59.1581 139.204 58.9781 139.144C58.8101 139.084 58.6481 138.94 58.4921 138.712L55.6121 134.104L57.3941 133.834L59.8781 137.794C59.9981 137.986 60.0701 138.148 60.0941 138.28C60.1301 138.412 60.1061 138.532 60.0221 138.64C59.9501 138.748 59.8181 138.862 59.6261 138.982ZM52.7321 133.114H56.2961C56.5721 133.114 56.8301 133.066 57.0701 132.97C57.3101 132.862 57.5201 132.706 57.7001 132.502C57.8801 132.298 58.0241 132.046 58.1321 131.746C58.2401 131.446 58.2941 131.086 58.2941 130.666C58.2941 130.15 58.1981 129.712 58.0061 129.352C57.8261 128.992 57.5561 128.722 57.1961 128.542C56.8361 128.35 56.3921 128.254 55.8641 128.254H52.7321V133.114ZM67.4788 139.306C66.6268 139.306 65.8228 139.144 65.0668 138.82C64.3228 138.496 63.6628 138.046 63.0868 137.47C62.5228 136.882 62.0788 136.21 61.7548 135.454C61.4308 134.698 61.2688 133.882 61.2688 133.006C61.2688 132.118 61.4248 131.284 61.7368 130.504C62.0488 129.712 62.4808 129.022 63.0328 128.434C63.5968 127.846 64.2448 127.384 64.9768 127.048C65.7088 126.712 66.4888 126.544 67.3168 126.544C68.1808 126.544 68.9848 126.706 69.7288 127.03C70.4848 127.354 71.1388 127.81 71.6908 128.398C72.2548 128.974 72.6988 129.652 73.0228 130.432C73.3468 131.212 73.5088 132.046 73.5088 132.934C73.5088 133.81 73.3468 134.632 73.0228 135.4C72.7108 136.156 72.2788 136.834 71.7268 137.434C71.1748 138.022 70.5328 138.484 69.8008 138.82C69.0808 139.144 68.3068 139.306 67.4788 139.306ZM67.3708 137.668C67.9948 137.668 68.5768 137.548 69.1168 137.308C69.6688 137.068 70.1488 136.732 70.5568 136.3C70.9648 135.856 71.2828 135.352 71.5108 134.788C71.7508 134.212 71.8708 133.588 71.8708 132.916C71.8708 132.268 71.7508 131.662 71.5108 131.098C71.2828 130.522 70.9588 130.018 70.5388 129.586C70.1308 129.142 69.6568 128.794 69.1168 128.542C68.5768 128.29 68.0008 128.164 67.3888 128.164C66.7768 128.164 66.2008 128.29 65.6608 128.542C65.1208 128.794 64.6408 129.136 64.2208 129.568C63.8128 130 63.4888 130.504 63.2488 131.08C63.0208 131.656 62.9068 132.274 62.9068 132.934C62.9068 133.582 63.0208 134.194 63.2488 134.77C63.4888 135.346 63.8128 135.85 64.2208 136.282C64.6408 136.714 65.1148 137.056 65.6428 137.308C66.1828 137.548 66.7588 137.668 67.3708 137.668ZM81.1664 139.216C80.5184 139.216 79.8884 139.12 79.2764 138.928C78.6644 138.736 78.0944 138.46 77.5664 138.1C77.0384 137.74 76.5704 137.296 76.1624 136.768C75.7664 136.228 75.4544 135.628 75.2264 134.968C74.9984 134.296 74.8844 133.558 74.8844 132.754C74.8844 131.986 74.9984 131.278 75.2264 130.63C75.4544 129.97 75.7664 129.388 76.1624 128.884C76.5584 128.38 77.0204 127.954 77.5484 127.606C78.0884 127.246 78.6644 126.976 79.2764 126.796C79.9004 126.604 80.5364 126.508 81.1844 126.508C81.7844 126.508 82.3004 126.568 82.7324 126.688C83.1644 126.808 83.5184 126.94 83.7944 127.084C84.0704 127.216 84.2564 127.318 84.3524 127.39C84.5204 127.486 84.6824 127.6 84.8384 127.732C84.9944 127.864 85.0784 128.02 85.0904 128.2C85.1144 128.332 85.1024 128.44 85.0544 128.524C85.0184 128.608 84.9704 128.698 84.9104 128.794C84.8144 128.938 84.7124 129.046 84.6044 129.118C84.5084 129.178 84.4004 129.208 84.2804 129.208C84.1604 129.208 84.0524 129.172 83.9564 129.1C83.8604 129.028 83.7344 128.944 83.5784 128.848C83.5064 128.8 83.3624 128.722 83.1464 128.614C82.9304 128.506 82.6544 128.404 82.3184 128.308C81.9824 128.2 81.5744 128.146 81.0944 128.146C80.4824 128.146 79.8944 128.26 79.3304 128.488C78.7784 128.704 78.2924 129.016 77.8724 129.424C77.4524 129.832 77.1224 130.324 76.8824 130.9C76.6424 131.476 76.5224 132.124 76.5224 132.844C76.5224 133.576 76.6424 134.236 76.8824 134.824C77.1224 135.4 77.4524 135.892 77.8724 136.3C78.3044 136.708 78.7964 137.02 79.3484 137.236C79.9004 137.452 80.4824 137.56 81.0944 137.56C81.5504 137.56 81.9464 137.512 82.2824 137.416C82.6304 137.32 82.9124 137.218 83.1284 137.11C83.3564 136.99 83.5124 136.9 83.5964 136.84C83.7284 136.768 83.8424 136.696 83.9384 136.624C84.0464 136.552 84.1604 136.516 84.2804 136.516C84.4004 136.516 84.5084 136.552 84.6044 136.624C84.7124 136.684 84.8144 136.786 84.9104 136.93C84.9704 137.014 85.0184 137.11 85.0544 137.218C85.1024 137.314 85.1144 137.422 85.0904 137.542C85.0784 137.722 84.9944 137.878 84.8384 138.01C84.6824 138.13 84.5204 138.244 84.3524 138.352C84.2444 138.4 84.0524 138.502 83.7764 138.658C83.5124 138.802 83.1644 138.928 82.7324 139.036C82.3004 139.156 81.7784 139.216 81.1664 139.216ZM88.1682 139.18C87.9282 139.18 87.7482 139.144 87.6282 139.072C87.5202 139.012 87.4482 138.922 87.4122 138.802C87.3762 138.67 87.3582 138.52 87.3582 138.352V127.426C87.3582 127.114 87.4182 126.904 87.5382 126.796C87.6702 126.676 87.8982 126.616 88.2222 126.616H95.4582C95.6262 126.616 95.7702 126.634 95.8902 126.67C96.0102 126.706 96.1002 126.784 96.1602 126.904C96.2202 127.024 96.2502 127.204 96.2502 127.444C96.2502 127.684 96.2142 127.864 96.1422 127.984C96.0822 128.092 95.9922 128.164 95.8722 128.2C95.7522 128.236 95.6082 128.254 95.4402 128.254H88.9782V131.98H93.4782C93.6462 131.98 93.7842 131.998 93.8922 132.034C94.0122 132.07 94.1022 132.142 94.1622 132.25C94.2222 132.358 94.2522 132.526 94.2522 132.754C94.2522 132.97 94.2222 133.132 94.1622 133.24C94.1022 133.348 94.0122 133.42 93.8922 133.456C93.7722 133.48 93.6222 133.492 93.4422 133.492H88.9782V137.56H95.4582C95.6262 137.56 95.7702 137.578 95.8902 137.614C96.0102 137.65 96.1002 137.728 96.1602 137.848C96.2202 137.956 96.2502 138.13 96.2502 138.37C96.2502 138.61 96.2142 138.79 96.1422 138.91C96.0822 139.018 95.9922 139.09 95.8722 139.126C95.7522 139.162 95.6082 139.18 95.4402 139.18H88.1682ZM99.3651 139.18C99.1371 139.18 98.9631 139.144 98.8431 139.072C98.7231 139.012 98.6451 138.922 98.6091 138.802C98.5851 138.67 98.5731 138.52 98.5731 138.352V127.408C98.5731 127.252 98.5911 127.12 98.6271 127.012C98.6751 126.892 98.7531 126.796 98.8611 126.724C98.9811 126.652 99.1551 126.616 99.3831 126.616H103.361C103.949 126.616 104.483 126.706 104.963 126.886C105.455 127.054 105.881 127.306 106.241 127.642C106.601 127.978 106.877 128.404 107.069 128.92C107.273 129.424 107.375 130.012 107.375 130.684C107.375 131.104 107.309 131.542 107.177 131.998C107.045 132.442 106.841 132.862 106.565 133.258C106.301 133.654 105.959 133.984 105.539 134.248C105.119 134.512 104.609 134.662 104.009 134.698H100.193V138.37C100.193 138.538 100.169 138.682 100.121 138.802C100.085 138.922 100.007 139.012 99.8871 139.072C99.7791 139.144 99.6051 139.18 99.3651 139.18ZM107.087 138.982C106.835 139.15 106.619 139.204 106.439 139.144C106.271 139.084 106.109 138.94 105.953 138.712L103.073 134.104L104.855 133.834L107.339 137.794C107.459 137.986 107.531 138.148 107.555 138.28C107.591 138.412 107.567 138.532 107.483 138.64C107.411 138.748 107.279 138.862 107.087 138.982ZM100.193 133.114H103.757C104.033 133.114 104.291 133.066 104.531 132.97C104.771 132.862 104.981 132.706 105.161 132.502C105.341 132.298 105.485 132.046 105.593 131.746C105.701 131.446 105.755 131.086 105.755 130.666C105.755 130.15 105.659 129.712 105.467 129.352C105.287 128.992 105.017 128.722 104.657 128.542C104.297 128.35 103.853 128.254 103.325 128.254H100.193V133.114ZM110.382 139.18C110.142 139.18 109.962 139.144 109.842 139.072C109.734 139.012 109.662 138.922 109.625 138.802C109.59 138.67 109.572 138.52 109.572 138.352V127.426C109.572 127.258 109.59 127.114 109.625 126.994C109.674 126.874 109.752 126.784 109.86 126.724C109.98 126.652 110.16 126.616 110.4 126.616C110.64 126.616 110.814 126.652 110.922 126.724C111.042 126.784 111.114 126.874 111.138 126.994C111.174 127.114 111.192 127.264 111.192 127.444V138.37C111.192 138.538 111.174 138.682 111.138 138.802C111.102 138.922 111.024 139.012 110.904 139.072C110.796 139.144 110.622 139.18 110.382 139.18ZM114.518 139.18C114.278 139.18 114.098 139.144 113.978 139.072C113.87 139.012 113.798 138.922 113.762 138.802C113.726 138.67 113.708 138.52 113.708 138.352V127.426C113.708 127.114 113.768 126.904 113.888 126.796C114.02 126.676 114.248 126.616 114.572 126.616H121.808C121.976 126.616 122.12 126.634 122.24 126.67C122.36 126.706 122.45 126.784 122.51 126.904C122.57 127.024 122.6 127.204 122.6 127.444C122.6 127.684 122.564 127.864 122.492 127.984C122.432 128.092 122.342 128.164 122.222 128.2C122.102 128.236 121.958 128.254 121.79 128.254H115.328V131.98H119.828C119.996 131.98 120.134 131.998 120.242 132.034C120.362 132.07 120.452 132.142 120.512 132.25C120.572 132.358 120.602 132.526 120.602 132.754C120.602 132.97 120.572 133.132 120.512 133.24C120.452 133.348 120.362 133.42 120.242 133.456C120.122 133.48 119.972 133.492 119.792 133.492H115.328V137.56H121.808C121.976 137.56 122.12 137.578 122.24 137.614C122.36 137.65 122.45 137.728 122.51 137.848C122.57 137.956 122.6 138.13 122.6 138.37C122.6 138.61 122.564 138.79 122.492 138.91C122.432 139.018 122.342 139.09 122.222 139.126C122.102 139.162 121.958 139.18 121.79 139.18H114.518ZM128.433 139.36C127.977 139.36 127.545 139.306 127.137 139.198C126.741 139.09 126.375 138.946 126.039 138.766C125.715 138.574 125.427 138.364 125.175 138.136C124.923 137.908 124.725 137.68 124.581 137.452C124.449 137.26 124.365 137.104 124.329 136.984C124.293 136.852 124.299 136.726 124.347 136.606C124.407 136.486 124.521 136.354 124.689 136.21C124.881 136.066 125.049 136 125.193 136.012C125.337 136.012 125.469 136.066 125.589 136.174C125.721 136.282 125.853 136.426 125.985 136.606C126.285 137.014 126.651 137.314 127.083 137.506C127.515 137.686 127.941 137.776 128.361 137.776C128.901 137.776 129.381 137.704 129.801 137.56C130.221 137.416 130.551 137.2 130.791 136.912C131.043 136.612 131.169 136.228 131.169 135.76C131.169 135.376 131.073 135.052 130.881 134.788C130.689 134.524 130.431 134.302 130.107 134.122C129.783 133.93 129.423 133.768 129.027 133.636C128.631 133.492 128.229 133.354 127.821 133.222C127.497 133.114 127.179 132.994 126.867 132.862C126.555 132.718 126.261 132.562 125.985 132.394C125.709 132.214 125.463 132.004 125.247 131.764C125.043 131.524 124.881 131.242 124.761 130.918C124.653 130.594 124.599 130.216 124.599 129.784C124.599 129.124 124.755 128.542 125.067 128.038C125.391 127.534 125.841 127.144 126.417 126.868C126.993 126.58 127.659 126.436 128.415 126.436C128.859 126.436 129.267 126.478 129.639 126.562C130.011 126.646 130.341 126.76 130.629 126.904C130.917 127.036 131.163 127.18 131.367 127.336C131.571 127.48 131.727 127.618 131.835 127.75C132.051 127.978 132.171 128.17 132.195 128.326C132.219 128.482 132.129 128.674 131.925 128.902C131.733 129.118 131.547 129.232 131.367 129.244C131.187 129.256 130.989 129.172 130.773 128.992C130.545 128.728 130.305 128.524 130.053 128.38C129.813 128.236 129.555 128.14 129.279 128.092C129.015 128.032 128.721 128.002 128.397 128.002C128.085 128.002 127.791 128.044 127.515 128.128C127.251 128.2 127.017 128.314 126.813 128.47C126.621 128.626 126.471 128.818 126.363 129.046C126.255 129.262 126.201 129.514 126.201 129.802C126.201 130.126 126.285 130.402 126.453 130.63C126.633 130.858 126.867 131.056 127.155 131.224C127.443 131.38 127.767 131.524 128.127 131.656C128.487 131.776 128.865 131.896 129.261 132.016C129.693 132.148 130.119 132.31 130.539 132.502C130.959 132.682 131.337 132.91 131.673 133.186C132.009 133.45 132.279 133.786 132.483 134.194C132.687 134.602 132.789 135.106 132.789 135.706C132.789 136.306 132.669 136.834 132.429 137.29C132.201 137.746 131.883 138.13 131.475 138.442C131.067 138.742 130.599 138.97 130.071 139.126C129.555 139.282 129.009 139.36 128.433 139.36ZM134.448 140.62C134.448 140.62 134.43 140.614 134.394 140.602C134.358 140.59 134.322 140.554 134.286 140.494C134.25 140.446 134.232 140.356 134.232 140.224C134.232 140.032 134.256 139.912 134.304 139.864C134.364 139.816 134.406 139.792 134.43 139.792C134.43 139.78 134.496 139.72 134.628 139.612C134.76 139.516 134.838 139.336 134.862 139.072C134.766 139.06 134.682 139.036 134.61 139C134.538 138.964 134.472 138.916 134.412 138.856C134.316 138.772 134.262 138.664 134.25 138.532C134.238 138.388 134.232 138.256 134.232 138.136C134.232 137.98 134.244 137.83 134.268 137.686C134.292 137.542 134.37 137.428 134.502 137.344C134.634 137.248 134.862 137.2 135.186 137.2C135.546 137.2 135.798 137.272 135.942 137.416C136.026 137.5 136.074 137.608 136.086 137.74C136.11 137.872 136.122 138.01 136.122 138.154C136.122 138.226 136.122 138.292 136.122 138.352C136.122 138.412 136.11 138.478 136.086 138.55C136.062 138.91 135.972 139.246 135.816 139.558C135.66 139.882 135.462 140.14 135.222 140.332C134.982 140.524 134.724 140.62 134.448 140.62Z" fill="white"/>
<path d="M285.978 265.164H291.989V266.269H287.247V268.871H290.91V269.938H287.247V274H285.978V265.164ZM293.671 265.164H296.178C297.85 265.164 298.927 265.659 299.409 266.649C299.583 267.013 299.669 267.424 299.669 267.881C299.669 268.334 299.608 268.717 299.485 269.03C299.367 269.343 299.2 269.612 298.984 269.836C298.569 270.268 297.998 270.551 297.27 270.687C297.57 271.613 298.08 272.252 298.8 272.604C299.037 272.722 299.236 272.785 299.396 272.794C299.667 272.802 299.858 272.794 299.968 272.769V274H299.682C298.73 274 297.92 273.661 297.251 272.984C296.663 272.396 296.267 271.656 296.064 270.763H294.94V274H293.671V265.164ZM296.096 269.747C296.862 269.747 297.429 269.599 297.797 269.303C298.165 269.007 298.349 268.545 298.349 267.919C298.349 267.085 297.962 266.548 297.188 266.307C296.917 266.222 296.589 266.18 296.204 266.18H294.94V269.747H296.096ZM301.161 265.164H306.868V266.269H302.431V268.871H305.789V269.938H302.431V272.883H306.868V274H301.161V265.164ZM308.753 265.164H314.459V266.269H310.022V268.871H313.38V269.938H310.022V272.883H314.459V274H308.753V265.164ZM320.674 265.17H322.819C324.267 265.17 325.413 265.528 326.26 266.243C327.174 267.009 327.631 268.126 327.631 269.595C327.631 271.063 327.187 272.178 326.298 272.94C325.468 273.647 324.33 274 322.883 274H320.674V265.17ZM326.33 269.601C326.33 267.329 325.132 266.192 322.737 266.192H321.943V272.984H322.807C324.635 272.984 325.748 272.324 326.146 271.004C326.268 270.585 326.33 270.117 326.33 269.601ZM329.345 265.164H335.051V266.269H330.614V268.871H333.972V269.938H330.614V272.883H335.051V274H329.345V265.164ZM336.937 265.164H338.206V272.883H341.989V274H336.937V265.164ZM343.462 265.164H344.731V274H343.462V265.164ZM345.442 265.164H346.763L349.537 272.426L352.298 265.164H353.618L350.14 274H348.921L345.442 265.164ZM354.316 265.164H360.023V266.269H355.586V268.871H358.944V269.938H355.586V272.883H360.023V274H354.316V265.164ZM362.01 265.164H364.517C366.189 265.164 367.266 265.659 367.748 266.649C367.922 267.013 368.008 267.424 368.008 267.881C368.008 268.334 367.947 268.717 367.824 269.03C367.706 269.343 367.539 269.612 367.323 269.836C366.908 270.268 366.337 270.551 365.609 270.687C365.909 271.613 366.419 272.252 367.139 272.604C367.376 272.722 367.575 272.785 367.735 272.794C368.006 272.802 368.197 272.794 368.307 272.769V274H368.021C367.069 274 366.258 273.661 365.59 272.984C365.002 272.396 364.606 271.656 364.403 270.763H363.279V274H362.01V265.164ZM364.435 269.747C365.201 269.747 365.768 269.599 366.136 269.303C366.504 269.007 366.688 268.545 366.688 267.919C366.688 267.085 366.301 266.548 365.526 266.307C365.256 266.222 364.928 266.18 364.542 266.18H363.279V269.747H364.435ZM371.677 270.153L368.522 265.164H369.894L372.356 269.112L374.769 265.164H376.14L372.998 270.141V274H371.677V270.153Z" fill="white"/>
<path d="M18.1421 267.281H15.4824V266.164H22.0713V267.281H19.4116V275H18.1421V267.281ZM23.5693 266.164H24.8389V269.655H29.0156V266.164H30.2852V275H29.0156V270.772H24.8389V275H23.5693V266.164ZM35.1602 266.164H36.0298L39.7559 275H38.4355L37.5405 272.778H33.6177L32.729 275H31.4341L35.1602 266.164ZM37.1343 271.763L35.5854 267.891L34.0303 271.763H37.1343ZM40.9048 266.164H41.8188L46.4336 272.683L46.3638 271.769V266.164H47.6206V275H46.7129L42.8599 269.585L42.0918 268.481L42.1616 269.585V275H40.9048V266.164ZM49.582 266.164H50.8452V270.303L54.2476 266.164H55.8345L52.21 270.417L56.1138 275H54.5396L50.8452 270.595V275H49.582V266.164ZM62.2075 274.384C61.9071 274.596 61.522 274.763 61.0522 274.886C60.5825 275.004 60.007 275.063 59.3257 275.063C58.6486 275.063 57.9652 275.023 57.2754 274.943V273.711C57.8932 273.851 58.5153 273.921 59.1416 273.921C59.7679 273.921 60.2376 273.887 60.5508 273.819C60.8639 273.747 61.1157 273.654 61.3062 273.54C61.6574 273.328 61.833 273.053 61.833 272.715C61.833 272.452 61.7653 272.249 61.6299 272.105C61.4141 271.881 61.103 271.676 60.6968 271.49L59.0718 270.747C58.5132 270.485 58.1175 270.241 57.8848 270.017C57.3854 269.535 57.1357 268.976 57.1357 268.341C57.1357 267.69 57.4193 267.163 57.9863 266.761C58.6084 266.321 59.4928 266.101 60.6396 266.101C61.3802 266.101 62.0573 266.13 62.6709 266.189V267.402C62.1504 267.283 61.5685 267.224 60.9253 267.224C60.2863 267.224 59.8208 267.258 59.5288 267.326C59.241 267.389 59.0146 267.472 58.8496 267.573C58.5492 267.759 58.3989 268.005 58.3989 268.31C58.3989 268.606 58.4941 268.851 58.6846 269.046C58.8538 269.211 59.1628 269.401 59.6113 269.617L61.2808 270.411C61.8351 270.673 62.2223 270.921 62.4424 271.153C62.6667 271.386 62.8317 271.621 62.9375 271.858C63.0433 272.091 63.0962 272.372 63.0962 272.702C63.0962 273.028 63.0243 273.337 62.8804 273.629C62.7365 273.917 62.5122 274.168 62.2075 274.384ZM69.0947 266.164H75.106V267.269H70.3643V269.871H74.0269V270.938H70.3643V275H69.0947V266.164ZM76.4009 270.595C76.4009 269.905 76.5046 269.281 76.7119 268.722C76.9193 268.164 77.207 267.688 77.5752 267.294C78.3496 266.473 79.3547 266.062 80.5903 266.062C81.8302 266.062 82.8332 266.473 83.5991 267.294C84.3778 268.128 84.7671 269.228 84.7671 270.595C84.7671 271.962 84.3778 273.058 83.5991 273.883C82.8374 274.695 81.8345 275.102 80.5903 275.102C79.3504 275.102 78.3454 274.695 77.5752 273.883C76.7923 273.053 76.4009 271.957 76.4009 270.595ZM77.6704 270.588C77.6704 271.553 77.9053 272.351 78.375 272.981C78.904 273.684 79.6424 274.035 80.5903 274.035C81.5382 274.035 82.2746 273.684 82.7993 272.981C83.2648 272.359 83.4976 271.566 83.4976 270.601C83.4976 269.628 83.2648 268.826 82.7993 268.195C82.2746 267.484 81.5382 267.129 80.5903 267.129C79.6382 267.129 78.8997 267.484 78.375 268.195C77.9053 268.826 77.6704 269.624 77.6704 270.588ZM86.5381 266.164H89.0454C90.717 266.164 91.7939 266.659 92.2764 267.649C92.4499 268.013 92.5366 268.424 92.5366 268.881C92.5366 269.334 92.4753 269.717 92.3525 270.03C92.234 270.343 92.0669 270.612 91.8511 270.836C91.4364 271.268 90.8651 271.551 90.1372 271.687C90.4377 272.613 90.9476 273.252 91.667 273.604C91.904 273.722 92.1029 273.785 92.2637 273.794C92.5345 273.802 92.7249 273.794 92.835 273.769V275H92.5493C91.5972 275 90.7868 274.661 90.1182 273.984C89.5299 273.396 89.1343 272.656 88.9312 271.763H87.8076V275H86.5381V266.164ZM88.9629 270.747C89.7288 270.747 90.2959 270.599 90.6641 270.303C91.0322 270.007 91.2163 269.545 91.2163 268.919C91.2163 268.085 90.8291 267.548 90.0547 267.307C89.7839 267.222 89.4559 267.18 89.0708 267.18H87.8076V270.747H88.9629ZM98.3574 266.17H100.503C101.95 266.17 103.097 266.528 103.943 267.243C104.857 268.009 105.314 269.126 105.314 270.595C105.314 272.063 104.87 273.178 103.981 273.94C103.152 274.647 102.014 275 100.566 275H98.3574V266.17ZM104.013 270.601C104.013 268.329 102.816 267.192 100.42 267.192H99.627V273.984H100.49C102.318 273.984 103.431 273.324 103.829 272.004C103.952 271.585 104.013 271.117 104.013 270.601ZM106.743 270.595C106.743 269.905 106.846 269.281 107.054 268.722C107.261 268.164 107.549 267.688 107.917 267.294C108.691 266.473 109.696 266.062 110.932 266.062C112.172 266.062 113.175 266.473 113.941 267.294C114.72 268.128 115.109 269.228 115.109 270.595C115.109 271.962 114.72 273.058 113.941 273.883C113.179 274.695 112.176 275.102 110.932 275.102C109.692 275.102 108.687 274.695 107.917 273.883C107.134 273.053 106.743 271.957 106.743 270.595ZM108.012 270.588C108.012 271.553 108.247 272.351 108.717 272.981C109.246 273.684 109.984 274.035 110.932 274.035C111.88 274.035 112.616 273.684 113.141 272.981C113.607 272.359 113.839 271.566 113.839 270.601C113.839 269.628 113.607 268.826 113.141 268.195C112.616 267.484 111.88 267.129 110.932 267.129C109.98 267.129 109.242 267.484 108.717 268.195C108.247 268.826 108.012 269.624 108.012 270.588ZM115.813 266.164H117.134L118.841 272.397L119.089 273.496L119.368 272.397L121.158 266.164H122.377L124.148 272.397L124.434 273.54L124.707 272.397L126.427 266.164H127.696L125.018 275H123.799L121.939 268.779L121.729 267.986L121.526 268.779L119.686 275H118.467L115.813 266.164ZM128.693 266.164H129.607L134.222 272.683L134.152 271.769V266.164H135.409V275H134.501L130.648 269.585L129.88 268.481L129.95 269.585V275H128.693V266.164ZM137.37 266.164H138.64V273.883H142.423V275H137.37V266.164ZM143.597 270.595C143.597 269.905 143.701 269.281 143.908 268.722C144.116 268.164 144.403 267.688 144.771 267.294C145.546 266.473 146.551 266.062 147.787 266.062C149.027 266.062 150.029 266.473 150.795 267.294C151.574 268.128 151.963 269.228 151.963 270.595C151.963 271.962 151.574 273.058 150.795 273.883C150.034 274.695 149.031 275.102 147.787 275.102C146.547 275.102 145.542 274.695 144.771 273.883C143.989 273.053 143.597 271.957 143.597 270.595ZM144.867 270.588C144.867 271.553 145.102 272.351 145.571 272.981C146.1 273.684 146.839 274.035 147.787 274.035C148.735 274.035 149.471 273.684 149.996 272.981C150.461 272.359 150.694 271.566 150.694 270.601C150.694 269.628 150.461 268.826 149.996 268.195C149.471 267.484 148.735 267.129 147.787 267.129C146.834 267.129 146.096 267.484 145.571 268.195C145.102 268.826 144.867 269.624 144.867 270.588ZM156.553 266.164H157.422L161.148 275H159.828L158.933 272.778H155.01L154.122 275H152.827L156.553 266.164ZM158.527 271.763L156.978 267.891L155.423 271.763H158.527ZM162.304 266.17H164.449C165.896 266.17 167.043 266.528 167.89 267.243C168.804 268.009 169.261 269.126 169.261 270.595C169.261 272.063 168.816 273.178 167.928 273.94C167.098 274.647 165.96 275 164.513 275H162.304V266.17ZM167.959 270.601C167.959 268.329 166.762 267.192 164.367 267.192H163.573V273.984H164.437C166.265 273.984 167.378 273.324 167.775 272.004C167.898 271.585 167.959 271.117 167.959 270.601ZM170.987 266.164H172.257V275H170.987V266.164ZM174.218 266.164H175.132L179.747 272.683L179.677 271.769V266.164H180.934V275H180.026L176.173 269.585L175.405 268.481L175.475 269.585V275H174.218V266.164ZM189.522 274.911C189.036 275.038 188.393 275.102 187.593 275.102C186.797 275.102 186.114 275.002 185.542 274.803C184.975 274.604 184.487 274.31 184.076 273.921C183.196 273.1 182.756 271.957 182.756 270.493C182.756 269.537 182.984 268.712 183.441 268.018C184.059 267.074 185.009 266.473 186.292 266.215C186.685 266.139 187.167 266.101 187.739 266.101C188.31 266.101 188.803 266.128 189.218 266.183V267.402C188.854 267.309 188.333 267.262 187.656 267.262C186.983 267.262 186.431 267.338 186 267.491C185.568 267.643 185.21 267.861 184.927 268.145C184.36 268.699 184.076 269.482 184.076 270.493C184.076 271.521 184.355 272.345 184.914 272.962C185.523 273.635 186.393 273.972 187.523 273.972C187.785 273.972 188.029 273.961 188.253 273.94V270.684H189.522V274.911Z" fill="white"/>
<path d="M38.3535 148.774H41.3242C43.3281 148.774 44.916 149.27 46.0879 150.26C47.3535 151.32 47.9863 152.867 47.9863 154.9C47.9863 156.934 47.3711 158.478 46.1406 159.532C44.9922 160.511 43.416 161 41.4121 161H38.3535V148.774ZM46.1846 154.909C46.1846 151.763 44.5264 150.189 41.21 150.189H40.1113V159.594H41.3066C43.8379 159.594 45.3789 158.68 45.9297 156.852C46.0996 156.271 46.1846 155.624 46.1846 154.909ZM50.3594 148.766H58.2607V150.295H52.1172V153.898H56.7666V155.375H52.1172V159.453H58.2607V161H50.3594V148.766ZM60.8711 148.766H62.6289V159.453H67.8672V161H60.8711V148.766ZM69.9062 148.766H71.6641V161H69.9062V148.766ZM72.6484 148.766H74.4766L78.3174 158.82L82.1406 148.766H83.9688L79.1523 161H77.4648L72.6484 148.766ZM84.9355 148.766H92.8369V150.295H86.6934V153.898H91.3428V155.375H86.6934V159.453H92.8369V161H84.9355V148.766ZM95.5879 148.766H99.0596C101.374 148.766 102.865 149.451 103.533 150.822C103.773 151.326 103.894 151.895 103.894 152.527C103.894 153.154 103.809 153.685 103.639 154.118C103.475 154.552 103.243 154.924 102.944 155.234C102.37 155.832 101.579 156.225 100.571 156.412C100.987 157.695 101.693 158.58 102.689 159.066C103.018 159.23 103.293 159.318 103.516 159.33C103.891 159.342 104.154 159.33 104.307 159.295V161H103.911C102.593 161 101.471 160.531 100.545 159.594C99.7305 158.779 99.1826 157.754 98.9014 156.518H97.3457V161H95.5879V148.766ZM98.9453 155.111C100.006 155.111 100.791 154.906 101.301 154.496C101.811 154.086 102.065 153.447 102.065 152.58C102.065 151.426 101.529 150.682 100.457 150.348C100.082 150.23 99.6279 150.172 99.0947 150.172H97.3457V155.111H98.9453ZM105.959 148.766H113.86V150.295H107.717V153.898H112.366V155.375H107.717V159.453H113.86V161H105.959V148.766ZM116.471 148.774H119.441C121.445 148.774 123.033 149.27 124.205 150.26C125.471 151.32 126.104 152.867 126.104 154.9C126.104 156.934 125.488 158.478 124.258 159.532C123.109 160.511 121.533 161 119.529 161H116.471V148.774ZM124.302 154.909C124.302 151.763 122.644 150.189 119.327 150.189H118.229V159.594H119.424C121.955 159.594 123.496 158.68 124.047 156.852C124.217 156.271 124.302 155.624 124.302 154.909ZM134.488 148.766H136.246V161H134.488V148.766ZM138.962 148.766H140.228L146.617 157.792L146.521 156.526V148.766H148.261V161H147.004L141.669 153.503L140.605 151.974L140.702 153.503V161H138.962V148.766Z" fill="#F94892"/>
<path d="M42.274 181.252C41.65 181.252 41.074 181.162 40.546 180.982C40.018 180.79 39.55 180.532 39.142 180.208C38.746 179.872 38.434 179.494 38.206 179.074C37.978 178.654 37.846 178.216 37.81 177.76C37.81 177.34 38.092 177.13 38.656 177.13C38.86 177.13 39.01 177.154 39.106 177.202C39.202 177.25 39.274 177.334 39.322 177.454C39.37 177.562 39.418 177.718 39.466 177.922C39.598 178.282 39.796 178.6 40.06 178.876C40.324 179.14 40.642 179.35 41.014 179.506C41.398 179.65 41.824 179.722 42.292 179.722C42.856 179.722 43.348 179.62 43.768 179.416C44.2 179.212 44.536 178.936 44.776 178.588C45.016 178.228 45.136 177.826 45.136 177.382C45.136 176.95 45.016 176.566 44.776 176.23C44.548 175.894 44.23 175.636 43.822 175.456C43.426 175.276 42.97 175.186 42.454 175.186C42.25 175.186 42.076 175.168 41.932 175.132C41.788 175.096 41.68 175.024 41.608 174.916C41.548 174.796 41.518 174.616 41.518 174.376C41.518 174.148 41.548 173.98 41.608 173.872C41.68 173.764 41.788 173.692 41.932 173.656C42.076 173.62 42.256 173.602 42.472 173.602C42.952 173.602 43.354 173.53 43.678 173.386C44.014 173.23 44.266 173.032 44.434 172.792C44.602 172.54 44.686 172.27 44.686 171.982C44.686 171.586 44.59 171.238 44.398 170.938C44.218 170.626 43.954 170.386 43.606 170.218C43.27 170.05 42.88 169.966 42.436 169.966C42.052 169.966 41.71 170.02 41.41 170.128C41.122 170.224 40.858 170.368 40.618 170.56C40.39 170.752 40.174 170.998 39.97 171.298C39.802 171.562 39.64 171.718 39.484 171.766C39.328 171.802 39.106 171.736 38.818 171.568C38.626 171.436 38.5 171.304 38.44 171.172C38.392 171.04 38.41 170.878 38.494 170.686C38.554 170.566 38.644 170.416 38.764 170.236C38.884 170.044 39.046 169.846 39.25 169.642C39.454 169.438 39.7 169.246 39.988 169.066C40.276 168.886 40.612 168.742 40.996 168.634C41.392 168.514 41.848 168.454 42.364 168.454C42.976 168.454 43.528 168.55 44.02 168.742C44.524 168.922 44.944 169.174 45.28 169.498C45.616 169.822 45.874 170.194 46.054 170.614C46.234 171.022 46.324 171.454 46.324 171.91C46.324 172.294 46.246 172.654 46.09 172.99C45.946 173.326 45.748 173.614 45.496 173.854C45.244 174.082 44.986 174.262 44.722 174.394C45.046 174.502 45.334 174.67 45.586 174.898C45.838 175.114 46.048 175.36 46.216 175.636C46.396 175.912 46.528 176.2 46.612 176.5C46.708 176.8 46.756 177.082 46.756 177.346C46.756 178.09 46.564 178.756 46.18 179.344C45.808 179.932 45.286 180.4 44.614 180.748C43.942 181.084 43.162 181.252 42.274 181.252ZM52.9105 181.27C52.2745 181.27 51.7045 181.168 51.2005 180.964C50.7085 180.76 50.2825 180.472 49.9225 180.1C49.5625 179.716 49.2685 179.26 49.0405 178.732C48.8125 178.192 48.6445 177.598 48.5365 176.95C48.4285 176.302 48.3745 175.606 48.3745 174.862C48.3745 174.142 48.4285 173.464 48.5365 172.828C48.6445 172.18 48.8125 171.592 49.0405 171.064C49.2685 170.536 49.5565 170.08 49.9045 169.696C50.2645 169.3 50.6905 169 51.1825 168.796C51.6865 168.58 52.2505 168.472 52.8745 168.472C53.4985 168.472 54.0505 168.58 54.5305 168.796C55.0225 169 55.4425 169.3 55.7905 169.696C56.1385 170.08 56.4265 170.536 56.6545 171.064C56.8825 171.592 57.0505 172.18 57.1585 172.828C57.2665 173.476 57.3205 174.16 57.3205 174.88C57.3205 175.612 57.2665 176.302 57.1585 176.95C57.0505 177.598 56.8825 178.186 56.6545 178.714C56.4265 179.242 56.1385 179.698 55.7905 180.082C55.4425 180.466 55.0285 180.76 54.5485 180.964C54.0805 181.168 53.5345 181.27 52.9105 181.27ZM52.8385 179.632C53.4025 179.632 53.8645 179.512 54.2245 179.272C54.5845 179.02 54.8665 178.702 55.0705 178.318C55.2745 177.934 55.4185 177.532 55.5025 177.112C55.5985 176.68 55.6525 176.272 55.6645 175.888C55.6885 175.504 55.7005 175.198 55.7005 174.97V174.862C55.7005 173.854 55.5925 172.996 55.3765 172.288C55.1725 171.568 54.8605 171.022 54.4405 170.65C54.0205 170.278 53.4925 170.092 52.8565 170.092C52.2205 170.092 51.6865 170.278 51.2545 170.65C50.8345 171.022 50.5165 171.562 50.3005 172.27C50.0965 172.978 49.9945 173.848 49.9945 174.88C49.9945 175.888 50.0965 176.746 50.3005 177.454C50.5165 178.162 50.8345 178.702 51.2545 179.074C51.6865 179.446 52.2145 179.632 52.8385 179.632ZM59.0109 177.166C58.8669 177.166 58.7349 177.148 58.6149 177.112C58.5069 177.076 58.4169 177.004 58.3449 176.896C58.2849 176.788 58.2549 176.62 58.2549 176.392C58.2549 176.164 58.2849 175.996 58.3449 175.888C58.4169 175.78 58.5069 175.708 58.6149 175.672C58.7229 175.636 58.8489 175.618 58.9929 175.618H63.7089C63.8529 175.618 63.9789 175.636 64.0869 175.672C64.1949 175.708 64.2789 175.78 64.3389 175.888C64.3989 175.996 64.4289 176.164 64.4289 176.392C64.4289 176.62 64.3989 176.788 64.3389 176.896C64.2789 177.004 64.1889 177.076 64.0689 177.112C63.9609 177.148 63.8289 177.166 63.6729 177.166H59.0109ZM73.893 181.18C73.653 181.18 73.473 181.144 73.353 181.072C73.245 181.012 73.173 180.922 73.137 180.802C73.101 180.67 73.083 180.526 73.083 180.37V177.202H67.377C67.149 177.202 66.975 177.166 66.855 177.094C66.735 177.022 66.657 176.926 66.621 176.806C66.585 176.674 66.567 176.53 66.567 176.374C66.567 176.302 66.567 176.236 66.567 176.176C66.579 176.104 66.597 176.038 66.621 175.978L68.583 169.21C68.679 168.85 68.793 168.64 68.925 168.58C69.069 168.508 69.279 168.502 69.555 168.562C69.819 168.61 70.011 168.706 70.131 168.85C70.251 168.982 70.275 169.156 70.203 169.372L68.385 175.69H73.083V169.318C73.083 169.174 73.101 169.054 73.137 168.958C73.185 168.85 73.269 168.766 73.389 168.706C73.509 168.646 73.689 168.616 73.929 168.616C74.157 168.616 74.325 168.652 74.433 168.724C74.553 168.784 74.631 168.874 74.667 168.994C74.703 169.114 74.721 169.258 74.721 169.426V180.388C74.721 180.556 74.697 180.7 74.649 180.82C74.613 180.94 74.535 181.03 74.415 181.09C74.307 181.15 74.133 181.18 73.893 181.18ZM80.138 181.27C79.718 181.27 79.34 181.234 79.004 181.162C78.68 181.102 78.38 181.018 78.104 180.91C77.84 180.802 77.594 180.682 77.366 180.55C77.15 180.418 76.952 180.286 76.772 180.154C76.652 180.046 76.55 179.95 76.466 179.866C76.394 179.782 76.358 179.68 76.358 179.56C76.358 179.476 76.376 179.386 76.412 179.29C76.46 179.194 76.538 179.08 76.646 178.948C76.754 178.804 76.856 178.708 76.952 178.66C77.06 178.6 77.156 178.57 77.24 178.57C77.312 178.57 77.396 178.588 77.492 178.624C77.588 178.66 77.714 178.75 77.87 178.894C78.014 179.002 78.17 179.116 78.338 179.236C78.518 179.356 78.74 179.452 79.004 179.524C79.268 179.596 79.604 179.632 80.012 179.632C80.492 179.632 80.912 179.536 81.272 179.344C81.644 179.152 81.932 178.876 82.136 178.516C82.34 178.156 82.442 177.73 82.442 177.238C82.442 176.758 82.334 176.338 82.118 175.978C81.914 175.618 81.632 175.336 81.272 175.132C80.912 174.916 80.516 174.808 80.084 174.808C79.868 174.808 79.664 174.832 79.472 174.88C79.28 174.928 79.1 175 78.932 175.096C78.776 175.18 78.638 175.282 78.518 175.402C78.434 175.486 78.356 175.552 78.284 175.6C78.224 175.636 78.146 175.666 78.05 175.69C77.942 175.726 77.834 175.738 77.726 175.726C77.618 175.702 77.468 175.654 77.276 175.582C77.06 175.486 76.904 175.396 76.808 175.312C76.712 175.228 76.664 175.108 76.664 174.952L77.438 169.444C77.462 169.312 77.492 169.186 77.528 169.066C77.564 168.934 77.636 168.826 77.744 168.742C77.864 168.646 78.032 168.598 78.248 168.598L82.928 168.616C83.084 168.616 83.216 168.634 83.324 168.67C83.444 168.706 83.534 168.784 83.594 168.904C83.654 169.024 83.684 169.204 83.684 169.444C83.684 169.66 83.654 169.822 83.594 169.93C83.534 170.038 83.45 170.11 83.342 170.146C83.234 170.182 83.102 170.2 82.946 170.2H78.968L78.464 173.746C78.608 173.626 78.77 173.53 78.95 173.458C79.142 173.386 79.334 173.326 79.526 173.278C79.718 173.23 79.904 173.206 80.084 173.206H80.21C80.726 173.206 81.212 173.308 81.668 173.512C82.136 173.716 82.544 173.998 82.892 174.358C83.252 174.718 83.54 175.132 83.756 175.6C83.972 176.068 84.08 176.566 84.08 177.094C84.08 177.91 83.906 178.63 83.558 179.254C83.21 179.878 82.736 180.37 82.136 180.73C81.548 181.09 80.882 181.27 80.138 181.27ZM91.4875 181.18C91.2715 181.18 91.1035 181.144 90.9835 181.072C90.8755 181 90.7975 180.904 90.7495 180.784C90.7015 180.652 90.6775 180.508 90.6775 180.352V169.408C90.6775 169.252 90.7015 169.12 90.7495 169.012C90.7975 168.892 90.8815 168.796 91.0015 168.724C91.1215 168.652 91.2955 168.616 91.5235 168.616C91.7035 168.616 91.8475 168.628 91.9555 168.652C92.0635 168.676 92.1475 168.712 92.2075 168.76C92.2795 168.796 92.3515 168.856 92.4235 168.94L97.1215 175.744H96.5635L101.316 168.886C101.388 168.802 101.46 168.742 101.532 168.706C101.604 168.67 101.694 168.646 101.802 168.634C101.922 168.622 102.06 168.616 102.216 168.616C102.444 168.616 102.612 168.652 102.72 168.724C102.84 168.796 102.924 168.898 102.972 169.03C103.02 169.15 103.044 169.288 103.044 169.444V180.388C103.044 180.532 103.02 180.664 102.972 180.784C102.924 180.904 102.84 181 102.72 181.072C102.6 181.144 102.426 181.18 102.198 181.18C101.982 181.18 101.814 181.144 101.694 181.072C101.586 181 101.508 180.904 101.46 180.784C101.424 180.652 101.406 180.508 101.406 180.352V171.316L97.5535 176.986C97.5175 177.046 97.4695 177.106 97.4095 177.166C97.3495 177.214 97.2715 177.256 97.1755 177.292C97.0915 177.328 96.9835 177.346 96.8515 177.346C96.7075 177.346 96.5935 177.328 96.5095 177.292C96.4375 177.256 96.3715 177.214 96.3115 177.166C96.2515 177.106 96.1915 177.04 96.1315 176.968L92.2975 171.334V180.388C92.2975 180.532 92.2735 180.664 92.2255 180.784C92.1895 180.904 92.1115 181 91.9915 181.072C91.8835 181.144 91.7155 181.18 91.4875 181.18ZM106.233 181.18C105.993 181.18 105.813 181.144 105.693 181.072C105.585 181.012 105.513 180.922 105.477 180.802C105.441 180.67 105.423 180.52 105.423 180.352V169.426C105.423 169.258 105.441 169.114 105.477 168.994C105.525 168.874 105.603 168.784 105.711 168.724C105.831 168.652 106.011 168.616 106.251 168.616C106.491 168.616 106.665 168.652 106.773 168.724C106.893 168.784 106.965 168.874 106.989 168.994C107.025 169.114 107.043 169.264 107.043 169.444V180.37C107.043 180.538 107.025 180.682 106.989 180.802C106.953 180.922 106.875 181.012 106.755 181.072C106.647 181.144 106.473 181.18 106.233 181.18ZM110.135 181.18C109.931 181.18 109.769 181.144 109.649 181.072C109.541 181 109.463 180.904 109.415 180.784C109.379 180.652 109.361 180.502 109.361 180.334V169.372C109.361 169.216 109.385 169.084 109.433 168.976C109.481 168.868 109.565 168.784 109.685 168.724C109.817 168.652 109.997 168.616 110.225 168.616C110.489 168.616 110.675 168.64 110.783 168.688C110.891 168.736 110.999 168.82 111.107 168.94L117.875 178.516V169.372C117.875 169.216 117.893 169.084 117.929 168.976C117.977 168.868 118.061 168.784 118.181 168.724C118.301 168.652 118.475 168.616 118.703 168.616C118.919 168.616 119.081 168.652 119.189 168.724C119.309 168.796 119.387 168.898 119.423 169.03C119.471 169.15 119.495 169.288 119.495 169.444V180.352C119.495 180.508 119.465 180.652 119.405 180.784C119.357 180.904 119.267 181 119.135 181.072C119.015 181.144 118.841 181.18 118.613 181.18C118.421 181.18 118.259 181.156 118.127 181.108C118.007 181.06 117.893 180.97 117.785 180.838L110.981 171.334V180.352C110.981 180.508 110.957 180.652 110.909 180.784C110.861 180.904 110.777 181 110.657 181.072C110.537 181.144 110.363 181.18 110.135 181.18ZM127.326 181.234C126.522 181.234 125.802 181.096 125.166 180.82C124.542 180.532 124.008 180.136 123.564 179.632C123.132 179.116 122.802 178.51 122.574 177.814C122.346 177.106 122.232 176.338 122.232 175.51V169.426C122.232 169.258 122.25 169.114 122.286 168.994C122.334 168.874 122.412 168.784 122.52 168.724C122.64 168.652 122.82 168.616 123.06 168.616C123.3 168.616 123.48 168.652 123.6 168.724C123.72 168.784 123.798 168.874 123.834 168.994C123.87 169.114 123.888 169.264 123.888 169.444V175.51C123.888 176.314 124.02 177.022 124.284 177.634C124.548 178.246 124.938 178.732 125.454 179.092C125.97 179.44 126.612 179.614 127.38 179.614C128.1 179.614 128.718 179.446 129.234 179.11C129.75 178.774 130.146 178.3 130.422 177.688C130.698 177.076 130.836 176.344 130.836 175.492V169.318C130.836 169.174 130.854 169.054 130.89 168.958C130.938 168.85 131.022 168.766 131.142 168.706C131.262 168.646 131.442 168.616 131.682 168.616C131.91 168.616 132.078 168.652 132.186 168.724C132.306 168.784 132.384 168.874 132.42 168.994C132.456 169.114 132.474 169.264 132.474 169.444V175.546C132.474 176.386 132.36 177.154 132.132 177.85C131.904 178.534 131.568 179.134 131.124 179.65C130.692 180.154 130.152 180.544 129.504 180.82C128.868 181.096 128.142 181.234 127.326 181.234ZM144.334 168.616C144.49 168.616 144.616 168.634 144.712 168.67C144.82 168.706 144.904 168.778 144.964 168.886C145.024 168.982 145.054 169.144 145.054 169.372C145.054 169.588 145.018 169.75 144.946 169.858C144.886 169.966 144.802 170.038 144.694 170.074C144.586 170.098 144.454 170.11 144.298 170.11H140.572V180.388C140.572 180.544 140.548 180.682 140.5 180.802C140.464 180.922 140.386 181.012 140.266 181.072C140.158 181.144 139.99 181.18 139.762 181.18C139.522 181.18 139.342 181.144 139.222 181.072C139.114 181.012 139.042 180.922 139.006 180.802C138.982 180.67 138.97 180.526 138.97 180.37V170.11H135.19C135.034 170.11 134.902 170.098 134.794 170.074C134.686 170.038 134.602 169.966 134.542 169.858C134.482 169.75 134.452 169.588 134.452 169.372C134.452 169.144 134.476 168.982 134.524 168.886C134.584 168.778 134.668 168.706 134.776 168.67C134.896 168.634 135.028 168.616 135.172 168.616H144.334ZM147.899 181.18C147.659 181.18 147.479 181.144 147.359 181.072C147.251 181.012 147.179 180.922 147.143 180.802C147.107 180.67 147.089 180.52 147.089 180.352V169.426C147.089 169.114 147.149 168.904 147.269 168.796C147.401 168.676 147.629 168.616 147.953 168.616H155.189C155.357 168.616 155.501 168.634 155.621 168.67C155.741 168.706 155.831 168.784 155.891 168.904C155.951 169.024 155.981 169.204 155.981 169.444C155.981 169.684 155.945 169.864 155.873 169.984C155.813 170.092 155.723 170.164 155.603 170.2C155.483 170.236 155.339 170.254 155.171 170.254H148.709V173.98H153.209C153.377 173.98 153.515 173.998 153.623 174.034C153.743 174.07 153.833 174.142 153.893 174.25C153.953 174.358 153.983 174.526 153.983 174.754C153.983 174.97 153.953 175.132 153.893 175.24C153.833 175.348 153.743 175.42 153.623 175.456C153.503 175.48 153.353 175.492 153.173 175.492H148.709V179.56H155.189C155.357 179.56 155.501 179.578 155.621 179.614C155.741 179.65 155.831 179.728 155.891 179.848C155.951 179.956 155.981 180.13 155.981 180.37C155.981 180.61 155.945 180.79 155.873 180.91C155.813 181.018 155.723 181.09 155.603 181.126C155.483 181.162 155.339 181.18 155.171 181.18H147.899ZM161.814 181.36C161.358 181.36 160.926 181.306 160.518 181.198C160.122 181.09 159.756 180.946 159.42 180.766C159.096 180.574 158.808 180.364 158.556 180.136C158.304 179.908 158.106 179.68 157.962 179.452C157.83 179.26 157.746 179.104 157.71 178.984C157.674 178.852 157.68 178.726 157.728 178.606C157.788 178.486 157.902 178.354 158.07 178.21C158.262 178.066 158.43 178 158.574 178.012C158.718 178.012 158.85 178.066 158.97 178.174C159.102 178.282 159.234 178.426 159.366 178.606C159.666 179.014 160.032 179.314 160.464 179.506C160.896 179.686 161.322 179.776 161.742 179.776C162.282 179.776 162.762 179.704 163.182 179.56C163.602 179.416 163.932 179.2 164.172 178.912C164.424 178.612 164.55 178.228 164.55 177.76C164.55 177.376 164.454 177.052 164.262 176.788C164.07 176.524 163.812 176.302 163.488 176.122C163.164 175.93 162.804 175.768 162.408 175.636C162.012 175.492 161.61 175.354 161.202 175.222C160.878 175.114 160.56 174.994 160.248 174.862C159.936 174.718 159.642 174.562 159.366 174.394C159.09 174.214 158.844 174.004 158.628 173.764C158.424 173.524 158.262 173.242 158.142 172.918C158.034 172.594 157.98 172.216 157.98 171.784C157.98 171.124 158.136 170.542 158.448 170.038C158.772 169.534 159.222 169.144 159.798 168.868C160.374 168.58 161.04 168.436 161.796 168.436C162.24 168.436 162.648 168.478 163.02 168.562C163.392 168.646 163.722 168.76 164.01 168.904C164.298 169.036 164.544 169.18 164.748 169.336C164.952 169.48 165.108 169.618 165.216 169.75C165.432 169.978 165.552 170.17 165.576 170.326C165.6 170.482 165.51 170.674 165.306 170.902C165.114 171.118 164.928 171.232 164.748 171.244C164.568 171.256 164.37 171.172 164.154 170.992C163.926 170.728 163.686 170.524 163.434 170.38C163.194 170.236 162.936 170.14 162.66 170.092C162.396 170.032 162.102 170.002 161.778 170.002C161.466 170.002 161.172 170.044 160.896 170.128C160.632 170.2 160.398 170.314 160.194 170.47C160.002 170.626 159.852 170.818 159.744 171.046C159.636 171.262 159.582 171.514 159.582 171.802C159.582 172.126 159.666 172.402 159.834 172.63C160.014 172.858 160.248 173.056 160.536 173.224C160.824 173.38 161.148 173.524 161.508 173.656C161.868 173.776 162.246 173.896 162.642 174.016C163.074 174.148 163.5 174.31 163.92 174.502C164.34 174.682 164.718 174.91 165.054 175.186C165.39 175.45 165.66 175.786 165.864 176.194C166.068 176.602 166.17 177.106 166.17 177.706C166.17 178.306 166.05 178.834 165.81 179.29C165.582 179.746 165.264 180.13 164.856 180.442C164.448 180.742 163.98 180.97 163.452 181.126C162.936 181.282 162.39 181.36 161.814 181.36ZM168.81 181.198C168.45 181.198 168.198 181.126 168.054 180.982C167.91 180.838 167.838 180.598 167.838 180.262C167.838 180.01 167.868 179.818 167.928 179.686C167.988 179.542 168.09 179.44 168.234 179.38C168.378 179.308 168.57 179.272 168.81 179.272C169.17 179.272 169.416 179.344 169.548 179.488C169.692 179.632 169.764 179.884 169.764 180.244C169.764 180.484 169.734 180.676 169.674 180.82C169.614 180.952 169.512 181.048 169.368 181.108C169.236 181.168 169.05 181.198 168.81 181.198Z" fill="#F94892"/>
<path d="M57.9766 84.7637L71.3945 50.9844L67.0293 50.3105V47.8203H78.5723V50.3105L75.2617 50.8672L58.9434 92H55.7793L38.9336 50.9844L35.4473 50.3105V47.8203H49.0117V50.3105L44.5 50.9844L57.9766 84.7637ZM98.0547 85.291L99.7246 87.1953C96.6191 89.9883 93.6113 91.7363 90.7012 92.4395C90.0566 92.5957 89.4219 92.6738 88.7969 92.6738C84.5 92.6738 81.0039 91.3164 78.3086 88.6016C75.6328 85.9453 74.2949 82.4785 74.2949 78.2012C74.2949 73.9434 75.5547 70.3008 78.0742 67.2734C80.8477 63.9727 84.4512 62.3223 88.8848 62.3223C91.9512 62.3223 94.5391 63.4258 96.6484 65.6328C98.8945 67.9375 100.018 70.9355 100.018 74.627L98.6406 75.8574L79.5391 77.2344C79.5781 80.7891 80.7305 83.6309 82.9961 85.7598C85.0273 87.6348 87.3906 88.5723 90.0859 88.5723C92.7812 88.5723 95.4375 87.4785 98.0547 85.291ZM79.7441 74.4805L94.8027 73.1035C94.666 69.8613 93.416 67.6348 91.0527 66.4238C90.2129 65.9941 89.1387 65.7793 87.8301 65.7793C86.5215 65.7793 85.3496 66.1016 84.3145 66.7461C83.2988 67.3906 82.459 68.1719 81.7949 69.0898C80.5254 70.8281 79.8418 72.625 79.7441 74.4805ZM121.639 65.7793H109.305L106.697 68.8848H104.764L106.346 63.0254H127.82V65.7207L110.564 89.2461H124.129L126.766 86.1406H128.699L127.117 92H104.383V89.3047L121.639 65.7793ZM151.639 65.7793H139.305L136.697 68.8848H134.764L136.346 63.0254H157.82V65.7207L140.564 89.2461H154.129L156.766 86.1406H158.699L157.117 92H134.383V89.3047L151.639 65.7793ZM172.293 88.8945L176.043 89.5684V92H163.738V89.5684L167.547 88.8945V67.5664L163.738 66.8926V64.4609L172.293 62.3223V88.8945ZM167.371 53.3867C167.059 53.0352 166.805 52.6445 166.609 52.2148C166.414 51.7852 166.316 51.3652 166.316 50.9551C166.316 50.5254 166.414 50.1055 166.609 49.6953C166.805 49.2656 167.059 48.875 167.371 48.5234C168.094 47.7422 168.748 47.3516 169.334 47.3516C169.939 47.3516 170.447 47.459 170.857 47.6738C171.287 47.8887 171.668 48.1719 172 48.5234C172.723 49.3242 173.084 50.0371 173.084 50.6621C173.084 51.2676 172.977 51.7852 172.762 52.2148C172.566 52.6445 172.312 53.0352 172 53.3867C171.258 54.1484 170.574 54.5293 169.949 54.5293C169.344 54.5293 168.846 54.4219 168.455 54.207C168.064 53.9922 167.703 53.7188 167.371 53.3867ZM203.172 85.291L204.842 87.1953C201.736 89.9883 198.729 91.7363 195.818 92.4395C195.174 92.5957 194.539 92.6738 193.914 92.6738C189.617 92.6738 186.121 91.3164 183.426 88.6016C180.75 85.9453 179.412 82.4785 179.412 78.2012C179.412 73.9434 180.672 70.3008 183.191 67.2734C185.965 63.9727 189.568 62.3223 194.002 62.3223C197.068 62.3223 199.656 63.4258 201.766 65.6328C204.012 67.9375 205.135 70.9355 205.135 74.627L203.758 75.8574L184.656 77.2344C184.695 80.7891 185.848 83.6309 188.113 85.7598C190.145 87.6348 192.508 88.5723 195.203 88.5723C197.898 88.5723 200.555 87.4785 203.172 85.291ZM184.861 74.4805L199.92 73.1035C199.783 69.8613 198.533 67.6348 196.17 66.4238C195.33 65.9941 194.256 65.7793 192.947 65.7793C191.639 65.7793 190.467 66.1016 189.432 66.7461C188.416 67.3906 187.576 68.1719 186.912 69.0898C185.643 70.8281 184.959 72.625 184.861 74.4805Z" fill="white"/>
<line x1="15" y1="259.5" x2="226" y2="259.5" stroke="#F94892"/>
<line x1="285" y1="259.5" x2="376" y2="259.5" stroke="#F94892"/>
<line x1="285" y1="280.5" x2="376" y2="280.5" stroke="#F94892"/>
<line x1="15" y1="280.5" x2="226" y2="280.5" stroke="#F94892"/>
<path d="M203.656 265C202.29 265 201.713 265.617 200.762 265.617C199.788 265.617 199.044 265.004 197.861 265.004C196.703 265.004 195.468 265.674 194.684 266.814C193.582 268.422 193.769 271.45 195.553 274.03C196.191 274.953 197.043 275.989 198.16 276H198.18C199.152 276 199.44 275.398 200.777 275.391H200.797C202.113 275.391 202.378 275.996 203.345 275.996H203.365C204.482 275.985 205.38 274.838 206.018 273.918C206.477 273.256 206.648 272.924 207 272.176C204.42 271.249 204.006 267.786 206.557 266.459C205.778 265.536 204.684 265.001 203.652 265.001L203.656 265Z" fill="#F8F8F8"/>
<path d="M213 265.736V276.263C213 276.286 213.008 276.308 213.023 276.327C213.038 276.346 213.059 276.361 213.083 276.37C213.108 276.379 213.135 276.381 213.161 276.377C213.187 276.372 213.211 276.361 213.23 276.345L219.625 271L213.23 265.654C213.211 265.638 213.187 265.627 213.161 265.623C213.135 265.619 213.108 265.621 213.083 265.63C213.059 265.638 213.038 265.653 213.023 265.672C213.008 265.691 213 265.714 213 265.736ZM222.306 268.804L214.288 265.017L214.283 265.015C214.145 264.951 214.014 265.111 214.127 265.204L220.412 270.355L222.306 268.804ZM214.128 276.796C214.014 276.889 214.145 277.049 214.284 276.985L214.289 276.983L222.306 273.196L220.412 271.644L214.128 276.796ZM225.543 270.33L223.304 269.273L221.199 271L223.304 272.726L225.543 271.67C226.152 271.381 226.152 270.619 225.543 270.33Z" fill="#F8F8F8"/>
<defs>
<linearGradient id="paint0_linear_460_3" x1="197" y1="5" x2="197" y2="307" gradientUnits="userSpaceOnUse">
<stop stop-color="#F94892"/>
<stop offset="0.313376" stop-color="#AC2795" stop-opacity="0.956959"/>
<stop offset="1" stop-color="#520098"/>
</linearGradient>
</defs>
</svg>
